<?xml version="1.0" encoding="UTF-8" standalone="no"?>
<!-- Created with Inkscape (http://www.inkscape.org/) -->

<svg
   version="1.1"
   id="svg1"
   width="534.80939"
   height="169.33333"
   viewBox="0 0 534.80938 169.33333"
   xml:space="preserve"
   xmlns="http://www.w3.org/2000/svg"
   xmlns:svg="http://www.w3.org/2000/svg"><defs
     id="defs1" /><text
     xml:space="preserve"
     style="font-style:normal;font-variant:normal;font-weight:normal;font-stretch:normal;font-size:106.375px;font-family:Ubuntu;-inkscape-font-specification:Ubuntu;letter-spacing:-7.97813px;word-spacing:0px;display:inline;fill:#ffffff;fill-opacity:1;stroke-width:0"
     x="159.17584"
     y="127.84561"
     id="text11"
     transform="scale(0.99726679,1.0027407)"><tspan
       id="tspan11"
       x="159.17584"
       y="127.84561"
       style="font-style:normal;font-variant:normal;font-weight:normal;font-stretch:normal;font-size:106.375px;font-family:Iceland;-inkscape-font-specification:Iceland;letter-spacing:-7.97813px;word-spacing:0px;fill:#ffffff;fill-opacity:1;stroke-width:0">COMPSOC</tspan></text><text
     xml:space="preserve"
     style="font-size:29.3333px;font-family:'Perec W01 Negra Versalita';-inkscape-font-specification:'Perec W01 Negra Versalita, Normal';letter-spacing:-0.6px;word-spacing:0px;display:inline;fill:#ffffff;fill-opacity:1;stroke-width:0"
     x="289.73422"
     y="64.464745"
     id="text10"><tspan
       id="tspan10"
       x="289.73422"
       y="64.464745"
       style="font-style:normal;font-variant:normal;font-weight:normal;font-stretch:normal;font-size:29.3333px;font-family:Ubuntu;-inkscape-font-specification:Ubuntu;letter-spacing:-0.6px;word-spacing:0px;fill:#ffffff;fill-opacity:1">UNIVERSITY</tspan></text><text
     xml:space="preserve"
     style="font-size:29.3333px;font-family:'Perec W01 Negra Versalita';-inkscape-font-specification:'Perec W01 Negra Versalita, Normal';letter-spacing:-0.8px;word-spacing:0px;display:inline;fill:#ffffff;fill-opacity:1;stroke-width:0"
     x="169.98882"
     y="63.170048"
     id="text13"
     transform="scale(0.97858207,1.0218867)"><tspan
       id="tspan13"
       x="169.98882"
       y="63.170048"
       style="font-style:normal;font-variant:normal;font-weight:normal;font-stretch:normal;font-size:29.3333px;font-family:Ubuntu;-inkscape-font-specification:Ubuntu;letter-spacing:-0.8px;word-spacing:0px;fill:#ffffff;fill-opacity:1;stroke-width:0"
       dx="0">DURHAM </tspan></text><path
     id="path2"
     style="color:#000000;clip-rule:nonzero;display:inline;opacity:1;fill:#ffffff;fill-opacity:1;fill-rule:nonzero;stroke-width:0.1692;stroke-miterlimit:1.5;-inkscape-stroke:none"
     d="M 73.630794,0 0,42.522738 v 84.290252 l 73.630794,42.52034 73.630796,-42.52034 V 60.511467 c 2.89411,-1.45069 4.88379,-4.444064 4.88379,-7.899889 0,-4.875029 -3.95645,-8.832531 -8.83014,-8.832531 -4.87368,0 -8.83013,3.957502 -8.83013,8.832531 0,3.455825 1.98968,6.449199 4.88378,7.899889 V 105.74343 L 120.90065,96.755044 V 80.132919 c 3.01082,-1.407658 5.09957,-4.464151 5.09957,-8.005379 0,-4.87503 -3.95644,-8.832532 -8.83013,-8.832532 -4.87369,0 -8.83014,3.957502 -8.83014,8.832532 0,3.541228 2.08876,6.597721 5.09957,8.005379 v 21.292531 l 25.92937,12.61826 v 8.96678 L 73.630794,160.97551 V 76.239317 l -2.433499,-7.07034 -2.642083,7.07034 H 51.568643 l -2.550975,-7.07034 -2.522213,7.07034 V 104.41279 H 22.318683 V 48.16894 h -3.663439 l 0.0025,2.59174 h -3.661042 l 0.0025,-2.59174 h -3.670631 l 0.0072,2.59174 H 7.8902978 V 46.325233 L 73.630794,8.3602146 108.3975,28.439597 c -0.0365,0.325535 -0.0576,0.654985 -0.0576,0.990183 0,4.874874 3.95645,8.832532 8.83013,8.832532 4.87369,0 8.83014,-3.957658 8.83014,-8.832532 0,-4.875029 -3.95645,-8.832529 -8.83014,-8.832529 -1.89084,0 -3.64299,0.597313 -5.08038,1.611145 z m 43.539296,24.65868 c 2.63276,0 4.7711,2.137609 4.7711,4.7711 0,2.633336 -2.13834,4.771102 -4.7711,4.771102 -2.63277,0 -4.7711,-2.137766 -4.7711,-4.771102 0,-2.633491 2.13833,-4.7711 4.7711,-4.7711 z m 26.14515,23.181796 c 2.63277,0 4.77111,2.137609 4.77111,4.771102 0,2.633337 -2.13834,4.773499 -4.77111,4.773499 -2.63276,0 -4.7711,-2.140162 -4.7711,-4.773499 0,-2.633493 2.13834,-4.771102 4.7711,-4.771102 z M 11.09375,56.82645 c 2.329737,0 4.219668,1.891686 4.219668,4.222066 0,1.594256 -0.885812,2.983444 -2.19135,3.701799 v 41.880195 c 1.305538,0.71836 2.19135,2.10738 2.19135,3.7018 0,2.33022 -1.889931,4.22207 -4.219668,4.22207 -1.876919,0 -3.4510987,-1.2362 -3.9990932,-2.93219 v -2.62052 c 0.3381442,-1.01544 1.0444705,-1.86273 1.9683794,-2.37116 V 64.750315 C 8.1391273,64.241881 7.432801,63.394535 7.0946568,62.379148 V 59.761036 C 7.6422868,58.064377 9.216387,56.82645 11.09375,56.82645 Z m 0,2.371167 c -1.022336,0 -1.853296,0.82811 -1.853296,1.850899 0,1.022617 0.83096,1.853297 1.853296,1.853297 1.022507,0 1.8509,-0.83068 1.8509,-1.853297 0,-1.022789 -0.828393,-1.850899 -1.8509,-1.850899 z m 106.07634,8.158821 c 2.63276,0 4.7711,2.137608 4.7711,4.771102 0,2.633336 -2.13834,4.7711 -4.7711,4.7711 -2.63277,0 -4.7711,-2.137764 -4.7711,-4.7711 0,-2.633494 2.13833,-4.771102 4.7711,-4.771102 z M 59.564508,105.8095 c 2.329563,0 4.219667,1.89186 4.219667,4.22208 0,0.133 -0.0049,0.26339 -0.01682,0.39319 l 4.282001,2.77875 v 36.82858 c 1.322956,0.71328 2.222522,2.1113 2.222522,3.71858 0,2.33022 -1.892498,4.22206 -4.222073,4.22206 -2.329735,0 -4.219668,-1.89184 -4.219668,-4.22206 0,-0.43862 0.06764,-0.86086 0.191804,-1.2587 L 46.095096,141.89006 c -0.524613,0.23437 -1.107633,0.36443 -1.719034,0.36443 -2.328041,0 -4.217273,-1.89099 -4.217273,-4.21967 0,-2.32869 1.889232,-4.21727 4.217273,-4.21727 2.328041,0 4.219668,1.88858 4.219668,4.21727 0,0.20764 -0.01669,0.41203 -0.04554,0.61137 l 15.437746,10.27585 v -33.51278 l -2.498239,-1.62075 c -0.577398,0.29682 -1.231934,0.46513 -1.925212,0.46513 -2.329747,0 -4.222073,-1.89186 -4.222073,-4.22206 0,-2.33022 1.892326,-4.22208 4.222073,-4.22208 z m 0,2.36877 c -1.022504,0 -1.853303,0.83068 -1.853303,1.85331 0,1.02278 0.830799,1.85329 1.853303,1.85329 1.022331,0 1.850896,-0.83051 1.850896,-1.85329 0,-1.02263 -0.828565,-1.85331 -1.850896,-1.85331 z m -48.470758,0.30074 c -1.022336,0 -1.853296,0.83052 -1.853296,1.8533 0,1.02262 0.83096,1.85331 1.853296,1.85331 1.022507,0 1.8509,-0.83069 1.8509,-1.85331 0,-1.02278 -0.828393,-1.8533 -1.8509,-1.8533 z m 33.282349,27.70731 c -1.02081,0 -1.848503,0.8274 -1.848503,1.8485 0,1.0211 0.827693,1.8509 1.848503,1.8509 1.02081,0 1.850897,-0.8298 1.850897,-1.8509 0,-1.0211 -0.830087,-1.8485 -1.850897,-1.8485 z m 21.673746,15.71107 c -1.022504,0 -1.850897,0.83051 -1.850897,1.85329 0,1.02262 0.828393,1.8533 1.850897,1.8533 1.022331,0 1.853302,-0.83068 1.853302,-1.8533 0,-1.02278 -0.830971,-1.85329 -1.853302,-1.85329 z" /></svg>
