<?xml version="1.0" encoding="UTF-8" standalone="no"?>
<!DOCTYPE svg PUBLIC "-//W3C//DTD SVG 1.1//EN" "http://www.w3.org/Graphics/SVG/1.1/DTD/svg11.dtd">
<svg width="100%" height="100%" viewBox="0 0 1001 1000" version="1.1" xmlns="http://www.w3.org/2000/svg" xmlns:xlink="http://www.w3.org/1999/xlink" xml:space="preserve" xmlns:serif="http://www.serif.com/" style="fill-rule:evenodd;clip-rule:evenodd;stroke-miterlimit:1.5;">
    <g transform="matrix(1,0,0,1,-1106,0)">
        <g id="Outline-Logo" serif:id="Outline Logo" transform="matrix(0.925926,0,0,0.925926,1106.41,0)">
            <rect x="0" y="0" width="1080" height="1080" style="fill:none;"/>
            <clipPath id="_clip1">
                <rect x="0" y="0" width="1080" height="1080"/>
            </clipPath>
            <g clip-path="url(#_clip1)">
                <g id="Logo---Parts" serif:id="Logo + Parts" transform="matrix(0.997366,0,0,0.997641,17.2996,1.07365)">
                    <g id="Final-Logo" serif:id="Final Logo">
                        <g transform="matrix(1.08,0,0,1.08,0,0)">
                            <path d="M883.067,660.601L728.522,585.419L728.522,472.571" style="fill:none;stroke:black;stroke-width:44.11px;"/>
                        </g>
                        <g transform="matrix(1.15705,0,0,1.02735,-47.9422,26.5236)">
                            <path d="M865.698,348.137L865.698,750L481.222,1000L96.746,750L96.746,250L481.222,0L686.505,133.482" style="fill:none;stroke:black;stroke-width:43.54px;"/>
                        </g>
                        <g transform="matrix(0.999,0,0,0.999,61.5987,13.8409)">
                            <path d="M725.931,117.577C694.787,117.577 669.499,142.859 669.499,174.003C669.499,205.146 694.787,230.428 725.931,230.428C757.075,230.428 782.363,205.146 782.363,174.003C782.363,142.859 757.075,117.577 725.931,117.577ZM725.931,143.52C742.755,143.52 756.414,157.179 756.414,174.003C756.414,190.826 742.755,204.485 725.931,204.485C709.107,204.485 695.448,190.826 695.448,174.003C695.448,157.179 709.107,143.52 725.931,143.52Z"/>
                        </g>
                        <g transform="matrix(0.999,0,0,0.999,61.5987,286.342)">
                            <path d="M725.931,117.577C694.787,117.577 669.499,142.859 669.499,174.003C669.499,205.146 694.787,230.428 725.931,230.428C757.075,230.428 782.363,205.146 782.363,174.003C782.363,142.859 757.075,117.577 725.931,117.577ZM725.931,143.52C742.755,143.52 756.414,157.179 756.414,174.003C756.414,190.826 742.755,204.485 725.931,204.485C709.107,204.485 695.448,190.826 695.448,174.003C695.448,157.179 709.107,143.52 725.931,143.52Z"/>
                        </g>
                        <g transform="matrix(0.999,0,0,0.999,228.507,161.794)">
                            <path d="M725.931,117.577C694.787,117.577 669.499,142.859 669.499,174.003C669.499,205.146 694.787,230.428 725.931,230.428C757.075,230.428 782.363,205.146 782.363,174.003C782.363,142.859 757.075,117.577 725.931,117.577ZM725.931,143.52C742.755,143.52 756.414,157.179 756.414,174.003C756.414,190.826 742.755,204.485 725.931,204.485C709.107,204.485 695.448,190.826 695.448,174.003C695.448,157.179 709.107,143.52 725.931,143.52Z"/>
                        </g>
                        <g id="Masked" transform="matrix(1.08,0,0,1.08,0,0.0895952)">
                            <path d="M59.257,299.733L102.937,299.733L102.9,284.417L124.6,284.417L124.579,299.733L146.221,299.733L146.2,284.417L167.863,284.417L167.863,616.78L310.763,616.78L310.763,450.303L325.677,408.511L340.763,450.303L441.162,450.303L456.777,408.511L471.162,450.303L471.162,958.565L59.257,719.584L59.257,299.733ZM402.342,641.039L417.12,650.62L417.12,848.659L325.868,787.936C326.039,786.758 326.128,785.551 326.128,784.324C326.128,770.563 314.956,759.391 301.195,759.391C287.434,759.391 276.262,770.563 276.262,784.324C276.262,798.085 287.434,809.257 301.195,809.257C304.809,809.257 308.244,808.486 311.345,807.101L405.488,869.747C404.754,872.098 404.358,874.598 404.358,877.19C404.358,890.96 415.537,902.14 429.308,902.14C443.078,902.14 454.258,890.96 454.258,877.19C454.258,867.692 448.94,859.427 441.12,855.212L441.12,637.578L415.805,621.164C415.876,620.397 415.913,619.619 415.913,618.833C415.913,605.063 404.733,593.883 390.963,593.883C377.192,593.883 366.013,605.063 366.013,618.833C366.013,632.603 377.192,643.783 390.963,643.783C395.061,643.783 398.929,642.793 402.342,641.039ZM429.308,866.24C435.351,866.24 440.258,871.146 440.258,877.19C440.258,883.233 435.351,888.14 429.308,888.14C423.264,888.14 418.358,883.233 418.358,877.19C418.358,871.146 423.264,866.24 429.308,866.24ZM301.195,773.391C307.229,773.391 312.128,778.29 312.128,784.324C312.128,790.358 307.229,795.257 301.195,795.257C295.161,795.257 290.262,790.358 290.262,784.324C290.262,778.29 295.161,773.391 301.195,773.391ZM94.21,382.41L94.21,629.886C86.494,634.131 81.26,642.34 81.26,651.762C81.26,665.532 92.44,676.712 106.21,676.712C119.981,676.712 131.16,665.532 131.16,651.762C131.16,642.34 125.927,634.131 118.21,629.886L118.21,382.41C125.927,378.165 131.16,369.956 131.16,360.535C131.16,346.764 119.981,335.585 106.21,335.585C92.44,335.585 81.26,346.764 81.26,360.535C81.26,369.956 86.494,378.165 94.21,382.41ZM106.21,640.812C112.254,640.812 117.16,645.718 117.16,651.762C117.16,657.805 112.254,662.712 106.21,662.712C100.167,662.712 95.26,657.805 95.26,651.762C95.26,645.718 100.167,640.812 106.21,640.812ZM390.963,607.883C397.006,607.883 401.913,612.79 401.913,618.833C401.913,624.877 397.006,629.783 390.963,629.783C384.919,629.783 380.013,624.877 380.013,618.833C380.013,612.79 384.919,607.883 390.963,607.883ZM106.21,349.585C112.254,349.585 117.16,354.491 117.16,360.535C117.16,366.578 112.254,371.485 106.21,371.485C100.167,371.485 95.26,366.578 95.26,360.535C95.26,354.491 100.167,349.585 106.21,349.585Z"/>
                        </g>
                    </g>
                </g>
            </g>
        </g>
    </g>
</svg>
