<?xml version="1.0" encoding="UTF-8" standalone="no"?>
<!-- Created with Inkscape (http://www.inkscape.org/) -->

<svg
   version="1.1"
   id="svg1"
   width="534.80939"
   height="169.33333"
   viewBox="0 0 534.80938 169.33333"
   xml:space="preserve"
   sodipodi:docname="compsoc-v5-scaffold.svg"
   inkscape:version="1.3.2 (091e20ef0f, 2023-11-25)"
   xmlns:inkscape="http://www.inkscape.org/namespaces/inkscape"
   xmlns:sodipodi="http://sodipodi.sourceforge.net/DTD/sodipodi-0.dtd"
   xmlns="http://www.w3.org/2000/svg"
   xmlns:svg="http://www.w3.org/2000/svg"
   xmlns:serif="http://www.serif.com/"><sodipodi:namedview
     id="namedview1"
     pagecolor="#000000"
     bordercolor="#000000"
     borderopacity="0.25"
     inkscape:showpageshadow="2"
     inkscape:pageopacity="0.0"
     inkscape:pagecheckerboard="0"
     inkscape:deskcolor="#d1d1d1"
     inkscape:zoom="4"
     inkscape:cx="219.5"
     inkscape:cy="107.125"
     inkscape:window-width="2598"
     inkscape:window-height="1237"
     inkscape:window-x="1070"
     inkscape:window-y="90"
     inkscape:window-maximized="0"
     inkscape:current-layer="svg1"
     showguides="true" /><defs
     id="defs1"><inkscape:path-effect
       effect="powermask"
       id="path-effect10"
       is_visible="true"
       lpeversion="1"
       uri="#mask-powermask-path-effect10"
       invert="false"
       hide_mask="false"
       background="true"
       background_color="#ffffffff" /><inkscape:path-effect
       effect="powermask"
       id="path-effect12"
       is_visible="true"
       lpeversion="1"
       uri="#mask-powermask-path-effect12"
       invert="false"
       hide_mask="false"
       background="true"
       background_color="#ffffffff" /><filter
       id="mask-powermask-path-effect11_inverse"
       inkscape:label="filtermask-powermask-path-effect11"
       style="color-interpolation-filters:sRGB"
       height="100"
       width="100"
       x="-50"
       y="-50"><feColorMatrix
         id="mask-powermask-path-effect11_primitive1"
         values="1"
         type="saturate"
         result="fbSourceGraphic" /><feColorMatrix
         id="mask-powermask-path-effect11_primitive2"
         values="-1 0 0 0 1 0 -1 0 0 1 0 0 -1 0 1 0 0 0 1 0 "
         in="fbSourceGraphic" /></filter></defs><text
     xml:space="preserve"
     style="font-style:normal;font-variant:normal;font-weight:normal;font-stretch:normal;font-size:106.375px;font-family:Ubuntu;-inkscape-font-specification:Ubuntu;letter-spacing:-7.97813px;word-spacing:0px;display:inline;fill:#ffffff;fill-opacity:1;stroke-width:0"
     x="159.17584"
     y="127.84561"
     id="text11"
     transform="scale(0.99726679,1.0027407)"><tspan
       id="tspan11"
       x="159.17584"
       y="127.84561"
       style="font-style:normal;font-variant:normal;font-weight:normal;font-stretch:normal;font-size:106.375px;font-family:Iceland;-inkscape-font-specification:Iceland;letter-spacing:-7.97813px;word-spacing:0px;fill:#ffffff;fill-opacity:1;stroke-width:0">COMPSOC</tspan></text><text
     xml:space="preserve"
     style="font-size:29.3333px;font-family:'Perec W01 Negra Versalita';-inkscape-font-specification:'Perec W01 Negra Versalita, Normal';letter-spacing:-0.6px;word-spacing:0px;display:inline;fill:#ffffff;fill-opacity:1;stroke-width:0"
     x="289.73422"
     y="64.464745"
     id="text10"><tspan
       id="tspan10"
       x="289.73422"
       y="64.464745"
       style="font-style:normal;font-variant:normal;font-weight:normal;font-stretch:normal;font-size:29.3333px;font-family:Ubuntu;-inkscape-font-specification:Ubuntu;letter-spacing:-0.6px;word-spacing:0px;fill:#ffffff;fill-opacity:1">UNIVERSITY</tspan></text><text
     xml:space="preserve"
     style="font-size:29.3333px;font-family:'Perec W01 Negra Versalita';-inkscape-font-specification:'Perec W01 Negra Versalita, Normal';letter-spacing:-0.8px;word-spacing:0px;display:inline;fill:#ffffff;fill-opacity:1;stroke-width:0"
     x="169.98882"
     y="63.170048"
     id="text13"
     transform="scale(0.97858207,1.0218867)"><tspan
       id="tspan13"
       x="169.98882"
       y="63.170048"
       style="font-style:normal;font-variant:normal;font-weight:normal;font-stretch:normal;font-size:29.3333px;font-family:Ubuntu;-inkscape-font-specification:Ubuntu;letter-spacing:-0.8px;word-spacing:0px;fill:#ffffff;fill-opacity:1;stroke-width:0"
       dx="0">DURHAM </tspan></text><g
     id="Final-Logo"
     serif:id="Final Logo"
     style="clip-rule:evenodd;fill:none;fill-opacity:1;fill-rule:evenodd;stroke-miterlimit:1.5;opacity:1"
     transform="matrix(0.15664491,0,0,0.15668787,-6.0791979,0.02415694)"
     inkscape:label="logo">
                        
                        
                        
                        
                        
                        
                    <g
   id="g3"
   inkscape:label="everything else"
   mask="none"
   style="opacity:1"><g
     id="g2"
     inkscape:label="frame"><path
       d="M 883.067,660.601 728.522,585.419 V 472.571"
       style="clip-rule:evenodd;fill:none;fill-opacity:1;fill-rule:evenodd;stroke:#ffffff;stroke-width:44.11px;stroke-miterlimit:1.5;stroke-opacity:1"
       id="path2-5"
       transform="scale(1.08)"
       inkscape:label="arm-stroke" /><path
       d="M 865.698,348.137 V 750 L 481.222,1000 96.746,750 V 250 L 481.222,0 686.505,133.482"
       style="clip-rule:evenodd;fill:none;fill-opacity:1;fill-rule:evenodd;stroke:#ffffff;stroke-width:43.54px;stroke-miterlimit:1.5;stroke-opacity:1"
       id="path3"
       transform="matrix(1.15705,0,0,1.02735,-47.9422,26.523603)"
       inkscape:label="hex-stroke" /><path
       d="m 725.931,117.577 c -31.144,0 -56.432,25.282 -56.432,56.426 0,31.143 25.288,56.425 56.432,56.425 31.144,0 56.432,-25.282 56.432,-56.425 0,-31.144 -25.288,-56.426 -56.432,-56.426 z m 0,25.943 c 16.824,0 30.483,13.659 30.483,30.483 0,16.823 -13.659,30.482 -30.483,30.482 -16.824,0 -30.483,-13.659 -30.483,-30.482 0,-16.824 13.659,-30.483 30.483,-30.483 z"
       id="path4"
       style="clip-rule:evenodd;fill:#fffffe;fill-opacity:1;fill-rule:evenodd;stroke-miterlimit:1.5"
       inkscape:label="ring"
       transform="matrix(0.99899999,0,0,0.999,61.598698,13.8409)" /><path
       d="m 725.931,117.577 c -31.144,0 -56.432,25.282 -56.432,56.426 0,31.143 25.288,56.425 56.432,56.425 31.144,0 56.432,-25.282 56.432,-56.425 0,-31.144 -25.288,-56.426 -56.432,-56.426 z m 0,25.943 c 16.824,0 30.483,13.659 30.483,30.483 0,16.823 -13.659,30.482 -30.483,30.482 -16.824,0 -30.483,-13.659 -30.483,-30.482 0,-16.824 13.659,-30.483 30.483,-30.483 z"
       id="path5"
       style="clip-rule:evenodd;fill:#fffffe;fill-opacity:1;fill-rule:evenodd;stroke-miterlimit:1.5"
       transform="matrix(0.99899999,0,0,0.999,61.598698,286.342)"
       inkscape:label="ring" /><path
       d="m 725.931,117.577 c -31.144,0 -56.432,25.282 -56.432,56.426 0,31.143 25.288,56.425 56.432,56.425 31.144,0 56.432,-25.282 56.432,-56.425 0,-31.144 -25.288,-56.426 -56.432,-56.426 z m 0,25.943 c 16.824,0 30.483,13.659 30.483,30.483 0,16.823 -13.659,30.482 -30.483,30.482 -16.824,0 -30.483,-13.659 -30.483,-30.482 0,-16.824 13.659,-30.483 30.483,-30.483 z"
       id="path6"
       style="clip-rule:evenodd;fill:#fffffe;fill-opacity:1;fill-rule:evenodd;stroke-miterlimit:1.5"
       transform="matrix(0.99899999,0,0,0.999,228.507,161.794)"
       inkscape:label="ring" /></g><g
     id="g13"
     transform="matrix(6.7769571,0,0,6.7750893,-49.598156,-47.393021)"
     inkscape:label="cathedral"
     style="display:inline"><path
       style="clip-rule:evenodd;display:inline;fill:#fffffe;fill-opacity:1;fill-rule:evenodd;stroke-miterlimit:1.5"
       d="m 167.863,281.86409 0,317.04948 142.89999,0 0,-166.48736 14.914,-41.792 15.086,41.792 h 100.399 l 15.615,-41.792 14.385,41.792 L 471.162,958.565 59.257,719.584 V 281.86409"
       id="path7"
       transform="matrix(0.15936356,0,0,0.15940749,7.3186469,9.8576759)"
       sodipodi:nodetypes="cccccccccccc"
       inkscape:label="outline" /><g
       id="g16"
       inkscape:label="crenellations"
       transform="translate(-7.1102078e-7,-2.8492614)"
       style="display:inline"><path
         style="display:inline;fill:none;fill-opacity:0.356957;stroke:#ffffff;stroke-width:0;stroke-opacity:1"
         id="rect15"
         width="3.3977554"
         height="2.4414866"
         x="20.478315"
         y="55.196697"
         inkscape:label="1"
         sodipodi:type="rect" /><path
         style="fill:#ffffff;fill-opacity:1;stroke:#ffffff;stroke-width:0;stroke-opacity:1"
         id="rect15-1"
         width="3.3977554"
         height="2.4414866"
         x="23.876068"
         y="55.196697"
         inkscape:label="2"
         sodipodi:type="rect" /><path
         style="display:inline;fill:none;fill-opacity:0.48491;stroke:#ffffff;stroke-width:0;stroke-opacity:1"
         id="rect15-1-8"
         width="3.3977554"
         height="2.4414866"
         x="27.273827"
         y="55.196697"
         inkscape:label="3"
         sodipodi:type="rect" /><path
         style="fill:#ffffff;fill-opacity:1;stroke:#ffffff;stroke-width:0;stroke-opacity:1"
         id="rect15-1-8-3"
         width="3.3977554"
         height="2.4414866"
         x="30.671576"
         y="55.196697"
         inkscape:label="4"
         sodipodi:type="rect" /></g></g></g><g
   id="g10"
   inkscape:label="cutouts"
   transform="matrix(6.7769569,0,0,6.7750892,-49.598159,-66.697039)"><path
     id="path9"
     style="clip-rule:evenodd;display:inline;fill:#000000;fill-opacity:1;fill-rule:evenodd;stroke-width:0.159386;stroke-miterlimit:1.5"
     d="m 69.152741,109.49423 c -2.194592,0 -3.974609,1.78152 -3.974609,3.97656 0,2.19504 1.780017,3.97656 3.974609,3.97656 0.653072,0 1.270547,-0.1579 1.814453,-0.4375 l 2.35547,1.52734 v 31.57032 l -14.542969,-9.67969 c 0.02725,-0.18778 0.04102,-0.38058 0.04102,-0.57617 0,-2.19361 -1.779658,-3.97461 -3.972657,-3.97461 -2.193,0 -3.972656,1.781 -3.972656,3.97461 0,2.1936 1.779656,3.97461 3.972656,3.97461 0.575939,0 1.123002,-0.12298 1.617187,-0.34375 l 15.003907,9.98632 c -0.116973,0.37477 -0.181641,0.77237 -0.181641,1.18555 0,2.19504 1.78197,3.97852 3.976562,3.97852 2.194435,0 3.976562,-1.78348 3.976562,-3.97852 0,-1.51405 -0.847527,-2.832 -2.093749,-3.50391 v -34.6914 l -4.035157,-2.61719 c 0.01131,-0.12226 0.01758,-0.2458 0.01758,-0.37109 0,-2.19504 -1.782127,-3.97656 -3.976562,-3.97656 z m 0,2.23046 c 0.963034,0 1.746094,0.7828 1.746094,1.7461 0,0.96346 -0.78306,1.74609 -1.746094,1.74609 -0.963192,0 -1.74414,-0.78263 -1.74414,-1.74609 0,-0.9633 0.780948,-1.7461 1.74414,-1.7461 z m -14.304687,26.38477 c 0.961598,0 1.742187,0.78032 1.742187,1.74219 0,0.96186 -0.780589,1.74218 -1.742187,1.74218 -0.961599,0 -1.742188,-0.78032 -1.742188,-1.74218 0,-0.96187 0.780589,-1.74219 1.742188,-1.74219 z m 20.416015,14.80078 c 0.963034,0 1.746094,0.78068 1.746094,1.74414 0,0.9633 -0.78306,1.7461 -1.746094,1.7461 -0.963192,0 -1.74414,-0.7828 -1.74414,-1.7461 0,-0.96346 0.780948,-1.74414 1.74414,-1.74414 z"
     inkscape:label="circuit-cutout-2" /><path
     id="path10"
     style="clip-rule:evenodd;display:inline;fill:#000000;fill-opacity:1;fill-rule:evenodd;stroke-width:0.159386;stroke-miterlimit:1.5"
     d="m 23.557279,63.352049 c -2.194434,0 -3.976562,1.783318 -3.976562,3.978516 0,1.501777 0.834805,2.809644 2.064453,3.486328 v 39.449217 c -1.229648,0.67669 -2.064453,1.98635 -2.064453,3.48828 0,2.19504 1.782128,3.97657 3.976562,3.97657 2.194594,0 3.976563,-1.78153 3.976563,-3.97657 0,-1.50193 -0.834646,-2.81159 -2.064453,-3.48828 V 70.816893 c 1.229807,-0.676684 2.064453,-1.984551 2.064453,-3.486328 0,-2.195198 -1.781969,-3.978516 -3.976563,-3.978516 z m 0,2.232423 c 0.963192,0 1.746094,0.782635 1.746094,1.746093 0,0.963298 -0.782902,1.744142 -1.746094,1.744142 -0.963032,0 -1.74414,-0.780844 -1.74414,-1.744142 0,-0.963458 0.781108,-1.746093 1.74414,-1.746093 z m 0,46.423828 c 0.963192,0 1.746094,0.78264 1.746094,1.74609 0,0.9633 -0.782902,1.74414 -1.746094,1.74414 -0.963032,0 -1.74414,-0.78084 -1.74414,-1.74414 0,-0.96345 0.781108,-1.74609 1.74414,-1.74609 z"
     inkscape:label="circuit-cutout-1" /></g></g></svg>
