<?xml version="1.0" encoding="UTF-8" standalone="no"?>
<svg
   width="24"
   height="24"
   version="1.1"
   id="svg1"
   sodipodi:docname="compsoc-v5-colour.svg"
   inkscape:export-filename="../../assets/v5/compsoc-v5-colour.png"
   inkscape:export-xdpi="2048"
   inkscape:export-ydpi="2048"
   inkscape:version="1.3.2 (091e20ef0f, 2023-11-25)"
   xmlns:inkscape="http://www.inkscape.org/namespaces/inkscape"
   xmlns:sodipodi="http://sodipodi.sourceforge.net/DTD/sodipodi-0.dtd"
   xmlns:xlink="http://www.w3.org/1999/xlink"
   xmlns="http://www.w3.org/2000/svg"
   xmlns:svg="http://www.w3.org/2000/svg">
  <defs
     id="defs1">
    <linearGradient
       id="linearGradient1"
       inkscape:collect="always">
      <stop
         style="stop-color:#2f0f64;stop-opacity:1;"
         offset="0"
         id="stop1" />
      <stop
         style="stop-color:#521986;stop-opacity:1;"
         offset="1"
         id="stop2" />
    </linearGradient>
    <linearGradient
       inkscape:collect="always"
       xlink:href="#linearGradient1"
       id="linearGradient4"
       x1="0"
       y1="24"
       x2="24"
       y2="0"
       gradientUnits="userSpaceOnUse" />
  </defs>
  <sodipodi:namedview
     id="namedview1"
     pagecolor="#505050"
     bordercolor="#eeeeee"
     borderopacity="1"
     inkscape:showpageshadow="0"
     inkscape:pageopacity="0"
     inkscape:pagecheckerboard="0"
     inkscape:deskcolor="#505050"
     inkscape:zoom="31.389768"
     inkscape:cx="-1.3539444"
     inkscape:cy="11.930639"
     inkscape:window-width="3440"
     inkscape:window-height="1313"
     inkscape:window-x="0"
     inkscape:window-y="32"
     inkscape:window-maximized="1"
     inkscape:current-layer="svg1" />
  <rect
     style="fill:url(#linearGradient4);stroke:none;stroke-width:3.5;stroke-linecap:round"
     id="rect3"
     width="24"
     height="24"
     x="0"
     y="0"
     ry="0" />
  <path
     d="M 12,2 3.3035002,7.0221667 V 16.977833 L 12,22 20.6965,16.977833 V 9.147 c 0.341917,-0.17125 0.577,-0.5249167 0.577,-0.9330833 0,-0.5758334 -0.4675,-1.0431667 -1.043167,-1.0431667 -0.575666,0 -1.042916,0.4674167 -1.042916,1.0431667 0,0.4081666 0.235,0.7618333 0.576916,0.9330833 v 5.342167 L 17.583,13.427833 v -1.963666 c 0.355583,-0.16625 0.602333,-0.527084 0.602333,-0.945334 0,-0.575833 -0.467333,-1.0431666 -1.042916,-1.0431666 -0.575667,0 -1.043167,0.4673336 -1.043167,1.0431666 0,0.418167 0.24675,0.779084 0.602333,0.945334 v 2.515083 l 3.06275,1.4905 v 1.058583 L 12,21.0125 V 11.00475 L 11.7125,10.169417 11.400417,11.00475 H 9.3944169 l -0.3015,-0.835333 -0.298,0.835333 v 3.327333 H 5.9395002 V 7.6891667 H 5.5133335 V 7.9955 H 5.0875002 V 7.6891667 H 4.6614169 V 7.9955 H 4.2353335 V 7.4714167 L 12,2.9873333 16.106167,5.35875 a 1.0463333,1.0463333 0 0 0 -0.0069,0.1171662 c 0,0.5758335 0.4675,1.0431668 1.043166,1.0431668 0.575584,0 1.042918,-0.4674168 1.042918,-1.0431668 C 18.185324,4.9000833 17.717991,4.43275 17.142408,4.43275 a 1.0375,1.0375 0 0 0 -0.6,0.1903333 z m 5.142417,2.9123333 c 0.310916,0 0.563333,0.2525 0.563333,0.5635834 A 0.56366667,0.56366667 0 0 1 17.142417,6.0395 0.56391667,0.56391667 0 0 1 16.578833,5.4759167 0.56391667,0.56391667 0 0 1 17.142417,4.9123333 m 3.087916,2.738 c 0.310917,0 0.5635,0.2525 0.5635,0.5635834 A 0.56391667,0.56391667 0 0 1 20.230333,8.7775 0.56366667,0.56366667 0 0 1 19.667,8.2139167 0.56366667,0.56366667 0 0 1 20.230333,7.6503333 M 4.6215835,8.71175 a 0.49908333,0.49908333 0 0 1 0.4985,0.4989167 0.49833333,0.49833333 0 0 1 -0.2588333,0.4369169 v 4.9463334 a 0.49866667,0.49866667 0 1 1 -0.4795833,0 V 9.6475836 A 0.49833333,0.49833333 0 0 1 4.1228335,9.2106667 0.49925,0.49925 0 0 1 4.6215835,8.71175 m 0,0.28 a 0.21891667,0.21891667 0 0 0 0,0.4376664 0.21891667,0.21891667 0 1 0 0,-0.4376664 M 17.142417,9.9553336 c 0.310916,0 0.563333,0.2524994 0.563333,0.5635834 a 0.56366667,0.56366667 0 0 1 -0.563333,0.5635 0.56391667,0.56391667 0 0 1 -0.563584,-0.5635 0.56391667,0.56391667 0 0 1 0.563584,-0.5635834 m -6.804,4.5419164 a 0.49866667,0.49866667 0 0 1 0.496416,0.545083 l 0.505834,0.328084 v 4.34975 a 0.49875,0.49875 0 0 1 0.2625,0.439166 0.49908333,0.49908333 0 0 1 -0.498417,0.499 0.49925,0.49925 0 0 1 -0.49875,-0.498916 0.49725,0.49725 0 0 1 0.02283,-0.148584 L 8.7475002,18.758667 A 0.49833333,0.49833333 0 0 1 8.0466669,18.3035 c 0,-0.275 0.2230833,-0.4985 0.4980833,-0.4985 a 0.4985,0.4985 0 0 1 0.4929167,0.57075 L 10.861,19.589333 V 15.631 L 10.56575,15.439583 A 0.4985,0.4985 0 0 1 9.8400002,14.99575 0.4985,0.4985 0 0 1 10.338333,14.49725 m 0,0.279583 a 0.21891667,0.21891667 0 1 0 0.218917,0.218917 0.21916667,0.21916667 0 0 0 -0.218917,-0.218917 m -5.7168328,0.0355 a 0.21891667,0.21891667 0 0 0 0,0.437667 0.21891667,0.21891667 0 1 0 0,-0.437667 m 3.92325,3.27275 a 0.2185,0.2185 0 0 0 0,0.436917 0.21858333,0.21858333 0 0 0 0,-0.436917 m 2.5599168,1.855584 a 0.21891667,0.21891667 0 0 0 0,0.437583 0.21916667,0.21916667 0 0 0 0.218916,-0.218833 0.21891667,0.21891667 0 0 0 -0.218916,-0.21875"
     id="path1"
     style="fill:#ffffff;fill-opacity:1;stroke-width:0.833333" />
</svg>
