<svg xmlns="http://www.w3.org/2000/svg" xml:space="preserve" width="534.8106" height="169.334" viewBox="0 0 534.8105 169.334"><path d="M73.6309 0 0 42.5234v84.2891l73.6309 42.5215 73.6308-42.5215V60.5117c2.8941-1.4507 4.8848-4.4445 4.8848-7.9004 0-4.875-3.9564-8.832-8.83-8.832-4.8738 0-8.8302 3.957-8.8302 8.832 0 3.4559 1.9887 6.4497 4.8828 7.9004v45.2324l-18.4687-8.9882v-16.623c3.0108-1.4077 5.0996-4.4647 5.0996-8.006 0-4.875-3.9564-8.832-8.83-8.832-4.8738 0-8.8302 3.957-8.8302 8.832 0 3.5413 2.0889 6.5983 5.0997 8.006v21.2929l25.9296 12.6172v8.9668L73.631 160.9746V76.2383l-2.4336-7.0703-2.6407 7.0703H51.5684l-2.5508-7.0703-2.5215 7.0703v28.1738H22.3184V48.168h-3.6622l.002 2.5918h-3.6601L15 48.168h-3.67l.006 2.5918H7.8906v-4.4356L73.631 8.3594l34.7675 20.08c-.0365.3256-.0586.655-.0586.9903 0 4.8749 3.9564 8.832 8.8301 8.832 4.8737 0 8.8301-3.9571 8.8301-8.832 0-4.875-3.9564-8.832-8.83-8.832-1.891 0-3.6428.5975-5.0802 1.6113zm43.539 24.6582c2.6328 0 4.7715 2.138 4.7715 4.7715 0 2.6333-2.1387 4.7715-4.7715 4.7715-2.6328 0-4.7695-2.1382-4.7695-4.7715 0-2.6335 2.1367-4.7715 4.7695-4.7715m56.9297 18.9121c-.8037 0-1.694.0392-2.67.1192-.9567.0599-1.8286.1907-2.6132.3906v20.1426c.7846.1998 1.6565.3306 2.6133.3906.976.08 1.8662.1191 2.67.1191 1.6265 0 3.1178-.2092 4.4765-.6289 1.3587-.4396 2.526-1.09 3.502-1.9492.9759-.8793 1.7336-1.978 2.2695-3.2969.5358-1.3389.8027-2.9085.8027-4.707 0-1.7985-.267-3.3569-.8027-4.6758-.5359-1.3389-1.2936-2.4376-2.2696-3.2969-.976-.8792-2.1432-1.5295-3.502-1.9492-1.3586-.4396-2.8499-.6582-4.4765-.6582m38.6484 0c-.8037 0-1.692.0392-2.668.1192-.9568.0599-1.8286.1907-2.6132.3906v20.4726h2.7851v-8.123h3.2715c.268 0 .5266-.0113.7754-.0313.3636.4597.765.9997 1.2051 1.6192.4593.6195.9196 1.2884 1.379 2.0078.4592.6994.9094 1.4394 1.3495 2.2187.4593.7794.879 1.5493 1.2617 2.3086h3.043c-.3445-.7993-.7642-1.629-1.2617-2.4882a47.5333 47.5333 0 0 0-1.4649-2.457c-.4975-.7994-.9864-1.5188-1.4648-2.1583-.4593-.6594-.8403-1.1902-1.1465-1.5898 1.3587-.4796 2.3814-1.2083 3.0703-2.1875.708-.9792 1.0625-2.1583 1.0625-3.5371 0-2.1782-.7374-3.817-2.211-4.916-1.4543-1.0991-3.579-1.6485-6.373-1.6485m185.5274.0977c-2.1316 0-3.8032.4987-5.0156 1.496-1.2125.9974-1.8184 2.3846-1.8184 4.1641 0 .8605.1364 1.595.4102 2.2012.2933.6062.6849 1.1342 1.1738 1.584.4889.4302 1.0656.8101 1.7305 1.1426.6649.3129 1.3682.5973 2.1113.8515.6453.2347 1.2532.4685 1.8203.7032.5867.2346 1.105.519 1.5547.8515.4498.3129.8005.6948 1.0547 1.1445.2738.4303.412.9583.412 1.584 0 2.0338-1.4865 3.0508-4.4589 3.0508-1.3298 0-2.454-.1578-3.373-.4707-.9191-.3129-1.605-.5954-2.0547-.8496l-.8496 2.3457c.215.1173.5073.2654.8789.4414.391.1564.8509.3123 1.3789.4688.528.1368 1.1242.2537 1.789.3515.6845.1174 1.4287.1758 2.2305.1758 2.3662 0 4.1937-.4793 5.4844-1.4375 1.3102-.9582 1.9648-2.326 1.9648-4.1055 0-.9582-.1461-1.7706-.4394-2.4355-.2934-.6845-.7142-1.2709-1.2617-1.7598-.528-.4889-1.1632-.9097-1.9063-1.2617-.7236-.352-1.5243-.7027-2.4043-1.0547-.6258-.2347-1.2044-.4704-1.7324-.705-.5085-.2347-.9566-.488-1.3477-.7618-.391-.2933-.695-.6265-.9101-.998-.2151-.3716-.3223-.8314-.3223-1.379 0-.4888.0974-.9097.293-1.2617.215-.3715.4995-.6735.8515-.9082.352-.2346.7612-.412 1.2305-.5293.4693-.1173.9778-.1757 1.5254-.1757 1.0755 0 2.0146.1266 2.8164.3808.8213.2347 1.437.4802 1.8477.7344l.9101-2.3184c-.4693-.3129-1.2136-.5953-2.2305-.8496-.9973-.2737-2.1117-.4101-3.3437-.4101m-209.918.1113v13.039c0 1.1591.1446 2.2392.4317 3.2383.3061.9992.7645 1.868 1.377 2.6075.6123.7194 1.3966 1.2893 2.3534 1.709.9569.4196 2.0855.6289 3.3867.6289 1.3013 0 2.4217-.2093 3.3594-.629.9569-.4196 1.7412-.9895 2.3535-1.709.6315-.7393 1.0919-1.6082 1.379-2.6074.3061-.9991.459-2.0792.459-3.2382V43.7793h-2.7852v12.709c0 1.0391-.1141 1.9398-.3438 2.6992-.2296.7394-.5555 1.3485-.9765 1.8281-.421.4796-.9283.8383-1.5215 1.0782-.5741.2198-1.2158.33-1.9239.33-1.416 0-2.563-.469-3.4433-1.4082-.8803-.9392-1.3203-2.449-1.3203-4.5273v-12.709Zm36.3828 0v20.7734h2.7832V54.961h9.7325v9.5918h2.7832V43.7793h-2.7832v8.664h-9.7325v-8.664zm25.2227 0a119.9895 119.9895 0 0 0-1.9805 4.5566c-.6315 1.5188-1.2712 3.1183-1.9219 4.797a327.9343 327.9343 0 0 0-1.953 5.3339c-.6699 1.8585-1.387 3.8878-2.1524 6.086h2.8984l1.8086-5.3067h9.0137c.3062.8993.6036 1.7887.8906 2.668.287.8593.5927 1.7394.918 2.6386h3.043c-.7655-2.1982-1.4826-4.2274-2.1524-6.0859-.6698-1.8785-1.3298-3.6554-1.9805-5.334-.6315-1.6786-1.263-3.2781-1.8945-4.7969a120.0184 120.0184 0 0 0-1.9824-4.5566zm13.3984 0c-.1722 1.4988-.3352 3.087-.4883 4.7656-.134 1.6786-.2683 3.409-.4023 5.1875a409.7928 409.7928 0 0 0-.3144 5.3946 541.2315 541.2315 0 0 0-.2598 5.4257h2.7285c.0957-2.7977.2098-5.565.3438-8.3027.134-2.7577.307-5.3158.5175-7.6738.1914.3397.44.8293.7461 1.4687.3254.6395.6696 1.3682 1.0332 2.1875.3636.7994.7466 1.659 1.1485 2.5781.421.8993.8121 1.7794 1.1757 2.6387.3636.8593.6997 1.6571 1.0059 2.3965.3253.7394.582 1.3505.7734 1.83h2.2403c.1913-.4795.4399-1.0906.746-1.83.3254-.7394.6697-1.5372 1.0333-2.3965.3636-.8593.7465-1.7394 1.1484-2.6387.421-.9192.8122-1.7787 1.1758-2.578.3636-.8194.6997-1.5481 1.0058-2.1876.3254-.6394.584-1.129.7754-1.4687.2105 2.358.3817 4.916.5157 7.6738.134 2.7377.25 5.505.3457 8.3027h2.7265c-.3253-7.154-.8142-14.079-1.4648-20.7734h-2.4395c-.5167.8793-1.0708 1.9182-1.664 3.1172a113.6302 113.6302 0 0 0-1.7813 3.7773 142.2815 142.2815 0 0 0-1.7207 3.9278 2859.196 2859.196 0 0 0-1.5215 3.5664 2843.3121 2843.3121 0 0 0-1.5215-3.5664 142.3297 142.3297 0 0 0-1.7226-3.9278c-.5933-1.3189-1.186-2.5783-1.7793-3.7773-.5932-1.199-1.1493-2.238-1.666-3.1172zm116.713.1523c-.8214 0-1.7313.039-2.7286.1172-.9778.0587-1.8681.1853-2.67.3809v20.0351h2.8458v-7.9492h3.3437c.2738 0 .5388-.0097.793-.0293.3716.4498.7807.9778 1.2305 1.584.4693.6062.9388 1.2609 1.4082 1.9649a37.6891 37.6891 0 0 1 1.3789 2.1699c.4693.7626.8999 1.5166 1.291 2.2597h3.1094c-.352-.7822-.7826-1.5946-1.291-2.4355a46.1527 46.1527 0 0 0-1.4961-2.4043c-.5085-.7822-1.0072-1.4875-1.4961-2.1133-.4694-.6453-.861-1.1636-1.1739-1.5547 1.3885-.4693 2.4347-1.1824 3.1387-2.1406.7236-.9582 1.086-2.1116 1.086-3.461 0-2.1315-.752-3.735-2.2579-4.8105-1.4862-1.0755-3.6566-1.6133-6.5117-1.6133m-87.963.2051v12.7598c0 1.1342.1461 2.1902.4395 3.168.3129.9777.7824 1.8291 1.4082 2.5527.6258.704 1.4265 1.2612 2.4043 1.6719.9778.4106 2.133.6152 3.4629.6152 1.3297 0 2.4734-.2046 3.4316-.6152.9778-.4107 1.7785-.968 2.4043-1.672.6453-.7235 1.1149-1.5749 1.4082-2.5526.313-.9778.4707-2.0338.4707-3.168V44.1367h-2.8457v12.4375c0 1.017-.1169 1.8975-.3515 2.6406-.2347.7236-.5679 1.3198-.9981 1.7891-.4302.4693-.9485.82-1.5547 1.0547-.5866.2151-1.2413.3242-1.9648.3242-1.4471 0-2.622-.4598-3.5215-1.3789-.8996-.9191-1.3477-2.396-1.3477-4.4297V44.1367zm19.7266 0v20.3281h2.7871V48.5957c.5476.6258 1.1437 1.3486 1.789 2.17a92.2797 92.2797 0 0 1 1.9962 2.6405 91.5258 91.5258 0 0 1 2.0527 2.875 114.662 114.662 0 0 1 2.0234 2.963c.6454.9582 1.2415 1.8855 1.789 2.7851.5672.8996 1.066 1.712 1.4962 2.4355h2.377v-20.328h-2.7872v15.0487c-.6258-1.0364-1.3973-2.221-2.3164-3.5507-.8995-1.3298-1.8678-2.678-2.9043-4.047a94.8565 94.8565 0 0 0-3.1094-4.0194c-1.0364-1.3103-2.0144-2.454-2.9335-3.4317zm20.7559 0v20.3281h2.8457v-20.328Zm5.0605 0c.7236 2.1511 1.4288 4.1462 2.1133 5.9844a387.3356 387.3356 0 0 0 1.9941 5.1914 551.6797 551.6797 0 0 0 1.9356 4.7227c.6453 1.4862 1.3 2.963 1.9648 4.4296h2.67a178.3886 178.3886 0 0 0 1.9355-4.4296 167.1243 167.1243 0 0 0 1.9375-4.7227c.6453-1.6427 1.3-3.3727 1.9648-5.1914.6845-1.8382 1.3975-3.8333 2.1406-5.9844h-3.0507c-1.0365 3.0898-2.0632 6.0726-3.0801 8.9473-1.0169 2.855-2.0631 5.5243-3.1387 8.0078-1.0755-2.5031-2.1218-5.182-3.1387-8.0371a737.1898 737.1898 0 0 1-3.1093-8.918zm20.873 0v20.3281h13.1407v-2.4355h-10.295v-7.039h8.506v-2.377h-8.506v-6.041h9.5625v-2.4356zm49.004 0v20.3281h2.8457v-20.328Zm5.2382 0v2.4649h6.3946v17.8632h2.8457V46.6016h6.3945v-2.4649zm16.5313 0c1.056 1.9556 2.1801 3.9506 3.373 5.9844 1.193 2.0338 2.4632 4.097 3.8125 6.1895v8.1542h2.8457V56.252a201.861 201.861 0 0 0 3.7832-6.131c1.193-2.0337 2.319-4.0287 3.375-5.9843h-3.1699c-.7626 1.6036-1.6024 3.2362-2.5215 4.8985-.919 1.6426-1.8582 3.2266-2.8164 4.752-.9777-1.5254-1.9266-3.1094-2.8457-4.752-.919-1.6623-1.749-3.295-2.4922-4.8985zM174.328 46.1172c2.6409 0 4.6128.71 5.914 2.1289 1.3014 1.3988 1.9513 3.3664 1.9513 5.9043s-.65 4.5167-1.9512 5.9355c-1.3013 1.3989-3.2732 2.0977-5.914 2.0977-.7847 0-1.3959-.0093-1.836-.0293-.421-.02-.7184-.0406-.8906-.0606V46.207c.1722-.02.4696-.0386.8906-.0586.4401-.02 1.0513-.0312 1.836-.0312m38.6504 0c.7463 0 1.445.0598 2.0957.1797.6698.1199 1.2443.331 1.7227.6308.4975.2998.8887.709 1.1758 1.2286.287.5195.4316 1.1679.4316 1.9472 0 .8393-.1446 1.5195-.4316 2.039-.2871.4997-.6986.8902-1.2344 1.17-.5167.2798-1.1564.4684-1.9219.5684-.7655.0999-1.6271.1504-2.584.1504h-1.9805V46.207c.6316-.06 1.5401-.0898 2.7266-.0898m167.33.3066c.7628 0 1.4758.0604 2.1407.1778.6845.1173 1.2709.3219 1.7598.6152.5084.2933.9098.6947 1.2031 1.2031.2933.5085.4395 1.1436.4395 1.9063 0 .8213-.1462 1.4857-.4395 1.9941-.2933.4889-.7142.8708-1.2617 1.1445-.528.2738-1.1826.459-1.9649.5567-.7822.0978-1.6628.1465-2.6406.1465h-2.0234v-7.6563c.6453-.0586 1.5746-.0879 2.787-.0879m-129.1386.6836c.6507 1.4988 1.272 3.0665 1.8653 4.7051a233.0813 233.0813 0 0 1 1.8378 5.0371h-7.4062c.5932-1.7386 1.186-3.4184 1.7793-5.0371.6124-1.6386 1.254-3.2063 1.9238-4.705m-107.8535.7324c2.6328 0 4.7715 2.138 4.7715 4.7715 0 2.6334-2.1387 4.7735-4.7715 4.7735-2.6327 0-4.7715-2.1401-4.7715-4.7735 0-2.6335 2.1387-4.7715 4.7715-4.7715M11.0938 56.8262c2.3297 0 4.2207 1.8922 4.2207 4.2226 0 1.5943-.886 2.9828-2.1915 3.7012v41.8809c1.3056.7183 2.1915 2.1067 2.1915 3.7011 0 2.3303-1.891 4.2227-4.2208 4.2227-1.8769 0-3.45-1.2357-3.998-2.9317v-2.621c.3381-1.0155 1.0448-1.8627 1.9688-2.3711V64.75c-.924-.5084-1.6307-1.3557-1.9688-2.371v-2.6173c.5476-1.6966 2.1207-2.9355 3.998-2.9355m0 2.371c-1.0224 0-1.8536.8288-1.8536 1.8516 0 1.0226.8312 1.8535 1.8536 1.8535 1.0225 0 1.8515-.8309 1.8515-1.8535 0-1.0228-.829-1.8515-1.8515-1.8515m106.0761 8.1583c2.6328 0 4.7715 2.138 4.7715 4.7715 0 2.6333-2.1387 4.7714-4.7715 4.7714-2.6327 0-4.7695-2.1381-4.7695-4.7714 0-2.6335 2.1367-4.7715 4.7695-4.7715m58.0137 8.5742c-2.051 0-3.8176.7469-5.3027 2.2402-1.4145 1.4222-2.123 3.1644-2.123 5.2266v37.332c0 2.0622.7085 3.8407 2.123 5.334 1.4851 1.4222 3.2517 2.1328 5.3027 2.1328h29.705c2.051 0 3.7829-.7106 5.1973-2.1328 1.4852-1.4933 2.2286-3.2718 2.2286-5.334v-7.4668h-8.4864v7.4668h-27.582v-37.332h27.582v7.4668h8.4864v-7.4668c0-2.0622-.7434-3.8044-2.2286-5.2266-1.4144-1.4933-3.1463-2.2402-5.1972-2.2402zm51.9824 0c-2.051 0-3.8195.7469-5.3047 2.2402-1.4144 1.4222-2.121 3.1644-2.121 5.2266v37.332c0 2.0622.7066 3.8407 2.121 5.334 1.4852 1.4222 3.2538 2.1328 5.3047 2.1328h29.7031c2.051 0 3.7848-.7106 5.1993-2.1328 1.4851-1.4933 2.2265-3.2718 2.2265-5.334v-37.332c0-2.0622-.7414-3.8044-2.2265-5.2266-1.4145-1.4933-3.1483-2.2402-5.1993-2.2402zm47.7383 0v52.1601h8.4863V88.836l-3.1836-5.334h4.7754l12.623 29.7598h6.1524l13.0488-29.7597h4.7735l-3.1817 5.334v39.2538h8.4864V75.9297h-14.7461l-10.502 24.959h-1.0605l-10.502-24.959Zm63.1191 0v7.4668h7.4258l-7.4258 7.4668v37.332h8.4864v-14.9336h28.6445c1.9802 0 3.712-.745 5.1973-2.2383 1.4851-1.4933 2.2285-3.2354 2.2285-5.2265V83.3965c0-1.9911-.7434-3.7332-2.2285-5.2266-1.4852-1.4933-3.217-2.2402-5.1973-2.2402zm59.4082 0c-2.051 0-3.8195.7469-5.3046 2.2402-1.4145 1.4222-2.1211 3.1644-2.1211 5.2266V98.33c0 2.0622.7066 3.8387 2.121 5.332 1.4852 1.4222 3.2538 2.1348 5.3047 2.1348h21.2168v14.9316H390.006v7.4668h29.703c2.051 0 3.7829-.7106 5.1974-2.1328 1.4851-1.4933 2.2285-3.2718 2.2285-5.334V105.797c0-2.0622-.7434-3.8063-2.2285-5.2285-1.4145-1.4934-3.1464-2.2383-5.1973-2.2383h-21.2168V83.3965h28.6426v-7.4668zm45.6153 0c-2.051 0-3.8195.7469-5.3047 2.2402-1.4145 1.4222-2.1211 3.1644-2.1211 5.2266v37.332c0 2.0622.7066 3.8407 2.121 5.334 1.4853 1.4222 3.2538 2.1328 5.3048 2.1328H472.75c2.051 0 3.7848-.7106 5.1992-2.1328 1.4852-1.4933 2.2266-3.2718 2.2266-5.334v-37.332c0-2.0622-.7414-3.8044-2.2266-5.2266-1.4144-1.4933-3.1482-2.2402-5.1992-2.2402zm54.6328 0c-2.051 0-3.8176.7469-5.3027 2.2402-1.4145 1.4222-2.123 3.1644-2.123 5.2266v37.332c0 2.0622.7085 3.8407 2.123 5.334 1.4851 1.4222 3.2517 2.1328 5.3027 2.1328h29.705c2.051 0 3.7829-.7106 5.1973-2.1328 1.4852-1.4933 2.2286-3.2718 2.2286-5.334v-7.4668h-8.4864v7.4668h-27.582v-37.332h27.582v7.4668h8.4863v-7.4668c0-2.0622-.7433-3.8044-2.2285-5.2266-1.4144-1.4933-3.1463-2.2402-5.1972-2.2402zm-269.4531 7.4668h27.582v37.332h-27.582zm118.2832 0h27.582v22.4004H352.875l-6.3652 6.3984zm97.5976 0h27.582v37.332h-27.582Zm-384.543 22.412c2.3296 0 4.2208 1.8925 4.2208 4.2228 0 .133-.0057.2627-.0176.3925l4.2832 2.7793v36.8281c1.323.7133 2.2226 2.1115 2.2226 3.7188 0 2.3302-1.893 4.2227-4.2226 4.2227-2.3298 0-4.2207-1.8925-4.2207-4.2227 0-.4386.0692-.86.1933-1.2578l-15.9277-10.6016c-.5246.2344-1.1073.3633-1.7187.3633-2.328 0-4.2168-1.89-4.2168-4.2187 0-2.3287 1.8887-4.2168 4.2168-4.2168 2.328 0 4.2187 1.888 4.2187 4.2168 0 .2076-.016.412-.045.6113l15.4376 10.2754v-33.5137l-2.498-1.6191a4.2017 4.2017 0 0 1-1.9258.4648c-2.3298 0-4.2207-1.8925-4.2207-4.2227 0-2.3302 1.891-4.2226 4.2207-4.2226m0 2.3692c-1.0224 0-1.8535.831-1.8535 1.8535 0 1.0228.831 1.8536 1.8536 1.8536 1.0223 0 1.8515-.8308 1.8515-1.8535s-.8292-1.8536-1.8515-1.8536m-48.4706.3008c-1.0224 0-1.8536.8308-1.8536 1.8535s.8312 1.8535 1.8536 1.8535c1.0225 0 1.8515-.8309 1.8515-1.8535 0-1.0227-.829-1.8535-1.8515-1.8535m33.2832 27.707c-1.0209 0-1.8497.8286-1.8497 1.8497 0 1.021.8288 1.8496 1.8497 1.8496 1.0208 0 1.8515-.8285 1.8515-1.8496s-.8307-1.8497-1.8515-1.8497m21.6738 15.711c-1.0225 0-1.8516.8307-1.8516 1.8535 0 1.0226.829 1.8535 1.8516 1.8535 1.0223 0 1.8535-.8309 1.8535-1.8535 0-1.0228-.8312-1.8535-1.8535-1.8535" style="font-size:106.375px;font-family:Iceland;-inkscape-font-specification:Iceland;letter-spacing:-7.97813px;word-spacing:0;fill:#fff;stroke-width:0"/></svg>