<svg xmlns="http://www.w3.org/2000/svg" xml:space="preserve" width="571.0092" height="171.7116" viewBox="0 0 571.0091 171.7116"><path d="M73.4746.6855-.1562 43.209v84.289l73.6308 42.5215 73.6309-42.5214V61.1973c2.894-1.4507 4.8847-4.4446 4.8847-7.9004 0-4.875-3.9564-8.832-8.83-8.832-4.8737 0-8.8301 3.957-8.8301 8.832 0 3.4558 1.9887 6.4497 4.8828 7.9004v45.2324l-18.4688-8.9883v-16.623c3.0109-1.4077 5.0996-4.4647 5.0996-8.0059 0-4.875-3.9563-8.832-8.83-8.832-4.8737 0-8.8301 3.957-8.8301 8.832 0 3.5412 2.0888 6.5982 5.0996 8.0059v21.293l25.9297 12.6171v8.9668l-65.7383 37.9649V76.9238l-2.4336-7.0703-2.6406 7.0703H51.412l-2.5508-7.0703-2.5215 7.0703v28.1739H22.1621V48.8535H18.5l.002 2.5918h-3.6602l.002-2.5918h-3.67l.0059 2.5918H7.7344v-4.4355L73.4746 9.0449l34.7676 20.0801c-.0365.3255-.0586.655-.0586.9902 0 4.8749 3.9564 8.832 8.83 8.832 4.8738 0 8.8302-3.9571 8.8302-8.832 0-4.875-3.9564-8.832-8.8301-8.832-1.8909 0-3.6427.5975-5.0801 1.6113zm43.539 24.6583c2.6328 0 4.7716 2.138 4.7716 4.7714s-2.1388 4.7715-4.7715 4.7715c-2.6328 0-4.7696-2.1381-4.7696-4.7715 0-2.6335 2.1368-4.7715 4.7696-4.7715m56.9298 18.912c-.8038 0-1.694.0393-2.67.1192-.9568.06-1.8286.1908-2.6132.3906v20.1426c.7846.1998 1.6564.3307 2.6132.3906.976.08 1.8662.1192 2.67.1192 1.6266 0 3.1178-.2093 4.4765-.629 1.3587-.4396 2.526-1.0899 3.502-1.9492.976-.8792 1.7337-1.978 2.2695-3.2968.5358-1.339.8027-2.9085.8027-4.707 0-1.7986-.2669-3.357-.8027-4.6758-.5358-1.339-1.2935-2.4376-2.2695-3.297-.976-.8792-2.1433-1.5295-3.502-1.9491-1.3587-.4397-2.85-.6582-4.4765-.6582m38.6484 0c-.8037 0-1.692.0393-2.668.1192-.9568.06-1.8287.1908-2.6132.3906v20.4727h2.7851v-8.123h3.2715c.2679 0 .5266-.0113.7754-.0313.3636.4596.765.9996 1.205 1.6191.4593.6195.9197 1.2884 1.379 2.0078.4592.6995.9094 1.4394 1.3496 2.2188.4593.7793.879 1.5492 1.2617 2.3086h3.043c-.3445-.7994-.7642-1.629-1.2618-2.4883a47.5333 47.5333 0 0 0-1.4648-2.457c-.4976-.7994-.9864-1.5188-1.4649-2.1582-.4592-.6595-.8402-1.1902-1.1464-1.5899 1.3587-.4796 2.3814-1.2083 3.0703-2.1875.708-.9792 1.0625-2.1582 1.0625-3.537 0-2.1783-.7374-3.817-2.211-4.9161-1.4543-1.0991-3.579-1.6484-6.373-1.6484m185.5273.0977c-2.1315 0-3.8031.4988-5.0156 1.4961-1.2124.9973-1.8183 2.3845-1.8183 4.164 0 .8605.1363 1.595.4101 2.2012.2934.6063.685 1.1343 1.1738 1.584.489.4302 1.0656.8102 1.7305 1.1426.6649.3129 1.3682.5973 2.1113.8516.6454.2346 1.2532.4684 1.8204.703.5866.2348 1.1049.5192 1.5546.8517.4498.3128.8005.6947 1.0547 1.1445.2738.4302.4121.9582.4121 1.584 0 2.0337-1.4865 3.0508-4.459 3.0508-1.3297 0-2.4539-.1579-3.373-.4708-.9191-.3128-1.6049-.5953-2.0547-.8496l-.8496 2.3457c.2151.1174.5074.2655.879.4415.391.1564.8508.3123 1.3788.4687.528.1369 1.1242.2538 1.789.3516.6845.1173 1.4288.1757 2.2305.1757 2.3663 0 4.1938-.4792 5.4844-1.4375 1.3102-.9582 1.9649-2.3259 1.9649-4.1054 0-.9582-.1462-1.7707-.4395-2.4356-.2933-.6844-.7142-1.2709-1.2617-1.7597-.528-.489-1.1631-.9098-1.9062-1.2618-.7236-.352-1.5244-.7026-2.4044-1.0546-.6257-.2347-1.2044-.4705-1.7324-.7051-.5084-.2347-.9565-.488-1.3476-.7617-.3911-.2934-.695-.6265-.9102-.998-.215-.3716-.3222-.8314-.3222-1.379 0-.4889.0974-.9097.293-1.2617.215-.3716.4995-.6735.8515-.9082.352-.2347.7611-.412 1.2305-.5293.4693-.1173.9778-.1758 1.5253-.1758 1.0756 0 2.0147.1266 2.8164.3809.8214.2346 1.437.4801 1.8477.7343l.9102-2.3183c-.4694-.313-1.2136-.5954-2.2305-.8496-.9973-.2738-2.1118-.4102-3.3438-.4102m-209.918.1113V57.504c0 1.159.1447 2.2391.4317 3.2383.3062.9992.7646 1.868 1.377 2.6074.6123.7194 1.3966 1.2893 2.3535 1.709.9568.4196 2.0854.6289 3.3867.6289s2.4217-.2093 3.3594-.629c.9568-.4196 1.7411-.9895 2.3535-1.7089.6315-.7394 1.0918-1.6082 1.3789-2.6074.3062-.9992.459-2.0792.459-3.2383V44.465h-2.7852v12.709c0 1.039-.114 1.9398-.3437 2.6991-.2297.7394-.5556 1.3486-.9766 1.8282-.421.4796-.9282.8383-1.5215 1.0781-.574.2198-1.2157.33-1.9238.33-1.4161 0-2.563-.4689-3.4434-1.4081-.8802-.9393-1.3203-2.449-1.3203-4.5274v-12.709zm36.3829 0v20.7735h2.7832v-9.5918h9.7324v9.5918h2.7832V44.4648h-2.7832v8.6641h-9.7324v-8.664zm25.2226 0a119.9895 119.9895 0 0 0-1.9804 4.5567c-.6315 1.5187-1.2713 3.1182-1.9219 4.7969a327.9343 327.9343 0 0 0-1.9531 5.334c-.6698 1.8584-1.387 3.8877-2.1524 6.0859h2.8985l1.8086-5.3067h9.0136c.3062.8993.6036 1.7887.8907 2.668.287.8593.5926 1.7394.918 2.6387h3.0429c-.7655-2.1982-1.4826-4.2275-2.1524-6.086-.6697-1.8784-1.3298-3.6553-1.9804-5.334-.6315-1.6786-1.263-3.278-1.8945-4.7968a120.0184 120.0184 0 0 0-1.9825-4.5567zm13.3985 0c-.1723 1.4988-.3352 3.087-.4883 4.7657-.134 1.6786-.2684 3.409-.4023 5.1875A409.7928 409.7928 0 0 0 262 59.8125a541.8271 541.8271 0 0 0-.2598 5.4258h2.7285c.0957-2.7977.2098-5.565.3438-8.3028.134-2.7577.307-5.3157.5176-7.6738.1913.3397.4399.8293.746 1.4688.3254.6394.6697 1.3681 1.0333 2.1875.3636.7993.7466 1.6589 1.1484 2.578.421.8994.8122 1.7795 1.1758 2.6388.3636.8593.6997 1.657 1.0059 2.3965.3253.7393.582 1.3504.7734 1.83h2.2402c.1914-.4796.44-1.0907.7461-1.83.3253-.7394.6696-1.5372 1.0332-2.3965.3636-.8593.7466-1.7394 1.1485-2.6387.421-.9192.8122-1.7788 1.1757-2.5781.3636-.8194.6997-1.548 1.0059-2.1875.3253-.6395.584-1.129.7754-1.4688.2105 2.358.3817 4.9161.5156 7.6738.134 2.7378.25 5.505.3457 8.3028h2.7266c-.3253-7.1541-.8142-14.079-1.4649-20.7735h-2.4394c-.5167.8793-1.0709 1.9182-1.664 3.1172a113.6302 113.6302 0 0 0-1.7813 3.7774 142.2815 142.2815 0 0 0-1.7207 3.9277 2859.196 2859.196 0 0 0-1.5215 3.5664 2843.3121 2843.3121 0 0 0-1.5215-3.5664 142.3297 142.3297 0 0 0-1.7227-3.9277c-.5932-1.319-1.186-2.5784-1.7793-3.7774-.5932-1.199-1.1493-2.2379-1.666-3.1172zm116.7129.1524c-.8214 0-1.7312.039-2.7285.1172-.9778.0586-1.8682.1853-2.67.3808v20.0352h2.8457v-7.9492h3.3438c.2738 0 .5387-.0098.793-.0293.3715.4498.7806.9777 1.2304 1.584.4694.6062.9389 1.2608 1.4082 1.9648a37.6891 37.6891 0 0 1 1.379 2.17c.4693.7626.8998 1.5166 1.291 2.2597h3.1093c-.352-.7822-.7825-1.5947-1.291-2.4356a46.1527 46.1527 0 0 0-1.496-2.4043c-.5085-.7822-1.0073-1.4875-1.4962-2.1132-.4693-.6454-.861-1.1636-1.1738-1.5547 1.3884-.4694 2.4347-1.1824 3.1387-2.1406.7235-.9583 1.0859-2.1117 1.0859-3.461 0-2.1315-.752-3.735-2.2578-4.8105-1.4862-1.0756-3.6566-1.6133-6.5117-1.6133m-87.963.205V57.582c0 1.1343.1462 2.1902.4395 3.168.313.9778.7825 1.8292 1.4082 2.5527.6258.704 1.4265 1.2612 2.4043 1.672.9778.4106 2.1331.6151 3.463.6151 1.3297 0 2.4733-.2045 3.4316-.6152.9777-.4107 1.7785-.9679 2.4043-1.6719.6453-.7235 1.1148-1.575 1.4082-2.5527.3129-.9778.4707-2.0337.4707-3.168V44.8223h-2.8457v12.4375c0 1.0169-.117 1.8975-.3516 2.6406-.2347.7235-.5678 1.3197-.998 1.789-.4303.4694-.9485.82-1.5547 1.0547-.5867.2152-1.2413.3243-1.9649.3243-1.447 0-2.622-.4598-3.5215-1.379-.8995-.919-1.3476-2.3959-1.3476-4.4296V44.8223zm19.7266 0v20.3282h2.7871V49.2812c.5476.6258 1.1438 1.3486 1.7891 2.17a92.2797 92.2797 0 0 1 1.9961 2.6406 91.5258 91.5258 0 0 1 2.0527 2.875 114.662 114.662 0 0 1 2.0235 2.9629c.6453.9582 1.2415 1.8856 1.789 2.7851.5671.8996 1.066 1.712 1.4961 2.4356h2.377V44.8223h-2.7871V59.871c-.6258-1.0364-1.3973-2.221-2.3164-3.5508-.8996-1.3298-1.8679-2.678-2.9043-4.0469a94.8565 94.8565 0 0 0-3.1094-4.0195c-1.0364-1.3102-2.0145-2.4539-2.9336-3.4316zm20.7559 0v20.3282h2.8457V44.8223zm5.0605 0c.7236 2.1512 1.4289 4.1462 2.1133 5.9844a387.3356 387.3356 0 0 0 1.9942 5.1914 551.6797 551.6797 0 0 0 1.9355 4.7227c.6454 1.4862 1.3 2.963 1.9649 4.4297h2.6699a178.3886 178.3886 0 0 0 1.9355-4.4297 167.1243 167.1243 0 0 0 1.9375-4.7227c.6454-1.6426 1.3-3.3727 1.9649-5.1914.6844-1.8382 1.3975-3.8332 2.1406-5.9843h-3.0508c-1.0364 3.0897-2.0632 6.0726-3.08 8.9472-1.017 2.8551-2.0632 5.5243-3.1387 8.0078-1.0756-2.503-2.1218-5.182-3.1387-8.037a737.1898 737.1898 0 0 1-3.1094-8.918zm20.873 0v20.3282h13.1407v-2.4356h-10.2949v-7.039h8.5059v-2.377h-8.5059v-6.041h9.5625v-2.4355zm49.004 0v20.3282h2.8457V44.8223zm5.2383 0v2.465h6.3945v17.8632h2.8457V47.287h6.3945v-2.4648zm16.5312 0c1.056 1.9556 2.1802 3.9507 3.373 5.9844 1.193 2.0338 2.4633 4.097 3.8126 6.1895v8.1543h2.8457v-8.2129a201.861 201.861 0 0 0 3.7832-6.1309c1.1929-2.0337 2.319-4.0288 3.375-5.9843h-3.17c-.7626 1.6035-1.6023 3.2362-2.5214 4.8984-.9191 1.6427-1.8582 3.2266-2.8164 4.752-.9778-1.5254-1.9266-3.1093-2.8457-4.752-.9191-1.6622-1.7491-3.2949-2.4922-4.8984zM174.172 46.8028c2.6408 0 4.6128.7101 5.914 2.129 1.3013 1.3988 1.9512 3.3663 1.9512 5.9042 0 2.538-.6499 4.5168-1.9512 5.9356-1.3013 1.3988-3.2732 2.0976-5.914 2.0976-.7846 0-1.3958-.0093-1.836-.0293-.421-.02-.7184-.0405-.8906-.0605V46.8926c.1722-.02.4696-.0386.8906-.0586.4402-.02 1.0514-.0313 1.836-.0313m38.6504 0c.7463 0 1.445.0598 2.0957.1797.6697.12 1.2442.3311 1.7226.6309.4976.2997.8887.709 1.1758 1.2285.287.5196.4317 1.168.4317 1.9473 0 .8393-.1446 1.5195-.4317 2.039-.287.4996-.6985.8902-1.2344 1.17-.5166.2797-1.1564.4684-1.9218.5683-.7655.1-1.6272.1504-2.584.1504h-1.9805v-7.8242c.6315-.06 1.54-.0899 2.7266-.0899m167.33.3067c.7627 0 1.4758.0604 2.1407.1777.6844.1173 1.2708.322 1.7597.6152.5085.2934.9098.6947 1.2032 1.2032.2933.5084.4394 1.1436.4394 1.9062 0 .8214-.1461 1.4857-.4394 1.9942-.2934.4888-.7142.8707-1.2618 1.1445-.528.2738-1.1826.4589-1.9648.5566-.7822.0978-1.6629.1465-2.6406.1465h-2.0235v-7.6562c.6454-.0587 1.5747-.088 2.7871-.088m-129.1386.6836c.6506 1.4987 1.272 3.0664 1.8652 4.705a233.0813 233.0813 0 0 1 1.8379 5.0372h-7.4062c.5932-1.7386 1.186-3.4185 1.7792-5.0372.6124-1.6386 1.254-3.2063 1.9239-4.705m-107.8535.7324c2.6327 0 4.7714 2.138 4.7714 4.7715 0 2.6333-2.1387 4.7734-4.7714 4.7734-2.6328 0-4.7715-2.14-4.7715-4.7734 0-2.6335 2.1387-4.7715 4.7715-4.7715M10.9375 57.5117c2.3297 0 4.2207 1.8923 4.2207 4.2227 0 1.5942-.8859 2.9828-2.1914 3.7011v41.881c1.3055.7183 2.1914 2.1067 2.1914 3.701 0 2.3303-1.891 4.2227-4.2207 4.2227-1.877 0-3.45-1.2356-3.998-2.9316v-2.6211c.3381-1.0154 1.0448-1.8627 1.9687-2.371v-41.881c-.9239-.5084-1.6306-1.3557-1.9687-2.371v-2.6172c.5476-1.6967 2.1206-2.9356 3.998-2.9356m0 2.3711c-1.0223 0-1.8535.8288-1.8535 1.8516 0 1.0226.8312 1.8535 1.8535 1.8535 1.0225 0 1.8516-.831 1.8516-1.8535 0-1.0228-.829-1.8516-1.8516-1.8516m106.0762 8.1582c2.6327 0 4.7715 2.138 4.7715 4.7715 0 2.6333-2.1388 4.7715-4.7715 4.7715-2.6328 0-4.7696-2.1382-4.7696-4.7715 0-2.6335 2.1368-4.7715 4.7696-4.7715m58.0136 8.5742c-2.051 0-3.8175.747-5.3027 2.2403-1.4144 1.4222-2.123 3.1643-2.123 5.2265v37.332c0 2.0623.7086 3.8407 2.123 5.334 1.4852 1.4223 3.2518 2.1329 5.3027 2.1329h29.7051c2.051 0 3.7828-.7106 5.1973-2.1328 1.4852-1.4934 2.2285-3.2718 2.2285-5.334v-7.4668h-8.4863v7.4668h-27.582V84.082h27.582v7.4667h8.4863V84.082c0-2.0622-.7433-3.8043-2.2285-5.2265-1.4145-1.4934-3.1463-2.2403-5.1973-2.2403zm51.9825 0c-2.051 0-3.8196.747-5.3047 2.2403-1.4145 1.4222-2.1211 3.1643-2.1211 5.2265v37.332c0 2.0623.7066 3.8407 2.121 5.334 1.4852 1.4223 3.2538 2.1329 5.3048 2.1329h29.703c2.051 0 3.7849-.7106 5.1993-2.1328 1.4852-1.4934 2.2266-3.2718 2.2266-5.334V84.082c0-2.0623-.7414-3.8044-2.2266-5.2266-1.4144-1.4934-3.1483-2.2403-5.1992-2.2403zm47.7382 0v52.1602h8.4864v-39.254l-3.1836-5.3339h4.7754l12.623 29.7598h6.1524l13.0488-29.7598h4.7734l-3.1816 5.334v39.2539h8.4863V76.6152h-14.746l-10.502 24.959h-1.0606l-10.502-24.959zm63.1192 0v7.4668h7.4258l-7.4258 7.4668v37.332h8.4863v-14.9335h28.6445c1.9803 0 3.7121-.745 5.1973-2.2383 1.4852-1.4934 2.2285-3.2355 2.2285-5.2266V84.082c0-1.991-.7433-3.7332-2.2285-5.2265-1.4852-1.4934-3.217-2.2403-5.1972-2.2403zm59.4082 0c-2.051 0-3.8195.747-5.3047 2.2403-1.4145 1.4222-2.121 3.1643-2.121 5.2265v14.9336c0 2.0622.7065 3.8387 2.121 5.332 1.4852 1.4223 3.2537 2.1348 5.3047 2.1348h21.2168v14.9317h-28.6426v7.4668h29.7031c2.051 0 3.7828-.7106 5.1973-2.1328 1.4852-1.4934 2.2285-3.2718 2.2285-5.334v-14.9317c0-2.0622-.7433-3.8063-2.2285-5.2285-1.4144-1.4933-3.1463-2.2383-5.1973-2.2383H398.336V84.082h28.6426v-7.4668zm45.6152 0c-2.051 0-3.8195.747-5.3047 2.2403-1.4144 1.4222-2.121 3.1643-2.121 5.2265v37.332c0 2.0623.7066 3.8407 2.121 5.334 1.4852 1.4223 3.2538 2.1329 5.3047 2.1329h29.7031c2.051 0 3.7848-.7106 5.1993-2.1328 1.4851-1.4934 2.2265-3.2718 2.2265-5.334V84.082c0-2.0623-.7414-3.8044-2.2265-5.2266-1.4145-1.4934-3.1483-2.2403-5.1993-2.2403zm54.6328 0c-2.051 0-3.8175.747-5.3027 2.2403-1.4145 1.4222-2.123 3.1643-2.123 5.2265v37.332c0 2.0623.7085 3.8407 2.123 5.334 1.4852 1.4223 3.2518 2.1329 5.3027 2.1329h29.7051c2.051 0 3.7828-.7106 5.1973-2.1328 1.4852-1.4934 2.2285-3.2718 2.2285-5.334v-7.4668h-8.4863v7.4668h-27.582V84.082h27.582v7.4667h8.4863V84.082c0-2.0622-.7433-3.8043-2.2285-5.2265-1.4145-1.4934-3.1463-2.2403-5.1973-2.2403zm-269.453 7.4668h27.582v37.332h-27.582zm118.2831 0h27.582v22.4004h-21.2167l-6.3653 6.3985zm97.5977 0h27.582v37.332h-27.582zm-384.543 22.4121c2.3296 0 4.2207 1.8925 4.2207 4.2227 0 .133-.0057.2628-.0176.3926l4.2832 2.7793v36.8281c1.323.7133 2.2227 2.1115 2.2227 3.7188 0 2.3302-1.8931 4.2226-4.2227 4.2226-2.3297 0-4.2207-1.8924-4.2207-4.2226 0-.4387.0692-.86.1934-1.2579l-15.9277-10.6015c-.5247.2343-1.1074.3632-1.7188.3632-2.328 0-4.2168-1.89-4.2168-4.2187 0-2.3287 1.8888-4.2168 4.2168-4.2168 2.328 0 4.2188 1.8881 4.2188 4.2168 0 .2076-.0161.412-.045.6113l15.4375 10.2754v-33.5137l-2.498-1.619a4.2017 4.2017 0 0 1-1.9258.4647c-2.3297 0-4.2207-1.8924-4.2207-4.2226 0-2.3302 1.891-4.2227 4.2207-4.2227m0 2.3692c-1.0225 0-1.8535.8309-1.8535 1.8535 0 1.0228.831 1.8535 1.8535 1.8535 1.0223 0 1.8516-.8307 1.8516-1.8535 0-1.0226-.8293-1.8535-1.8516-1.8535m-48.4707.3008c-1.0223 0-1.8535.8307-1.8535 1.8535 0 1.0226.8312 1.8535 1.8535 1.8535 1.0225 0 1.8516-.8309 1.8516-1.8535 0-1.0228-.829-1.8535-1.8516-1.8535m33.2832 27.707c-1.0208 0-1.8496.8285-1.8496 1.8496s.8288 1.8496 1.8496 1.8496 1.8516-.8285 1.8516-1.8496-.8308-1.8496-1.8516-1.8496m21.6738 15.711c-1.0225 0-1.8515.8307-1.8515 1.8535 0 1.0226.829 1.8535 1.8515 1.8535 1.0224 0 1.8535-.831 1.8535-1.8535 0-1.0228-.8311-1.8536-1.8535-1.8536" style="font-size:106.375px;font-family:Iceland;-inkscape-font-specification:Iceland;letter-spacing:-7.97813px;word-spacing:0;fill:#fff;stroke-width:0"/></svg>